<?xml version="1.0" encoding="UTF-8"?>
<svg xmlns="http://www.w3.org/2000/svg" width="814" height="132" viewBox="0 0 814 132">
  <rect width="100%" height="100%" fill="#0d1117" rx="8"/>
  <g id="edges" stroke-linecap="round">
    <line x1="794" y1="66" x2="776" y2="66" stroke="#2ea043" stroke-width="1.6" opacity="0.7"/>
    <line x1="776" y1="66" x2="740" y2="66" stroke="#2ea043" stroke-width="1.6" opacity="0.7"/>
    <path d="M 758 86 C 740 86, 740 46, 722 46" fill="none" stroke="#388bfd" stroke-width="1.4" opacity="0.65"/>
    <line x1="740" y1="66" x2="704" y2="66" stroke="#2ea043" stroke-width="1.6" opacity="0.7"/>
    <path d="M 722 46 C 704 46, 704 106, 686 106" fill="none" stroke="#388bfd" stroke-width="1.4" opacity="0.65"/>
    <line x1="704" y1="66" x2="668" y2="66" stroke="#2ea043" stroke-width="1.6" opacity="0.7"/>
    <path d="M 686 106 C 668 106, 668 26, 650 26" fill="none" stroke="#388bfd" stroke-width="1.4" opacity="0.65"/>
    <line x1="668" y1="66" x2="632" y2="66" stroke="#2ea043" stroke-width="1.6" opacity="0.7"/>
    <path d="M 650 26 C 632 26, 632 106, 614 106" fill="none" stroke="#388bfd" stroke-width="1.4" opacity="0.65"/>
    <line x1="632" y1="66" x2="578" y2="66" stroke="#2ea043" stroke-width="1.6" opacity="0.7"/>
    <path d="M 614 106 C 605 106, 605 26, 596 26" fill="none" stroke="#388bfd" stroke-width="1.4" opacity="0.65"/>
    <path d="M 596 26 C 578 26, 578 106, 560 106" fill="none" stroke="#388bfd" stroke-width="1.4" opacity="0.65"/>
    <line x1="578" y1="66" x2="542" y2="66" stroke="#2ea043" stroke-width="1.6" opacity="0.7"/>
    <path d="M 560 106 C 542 106, 542 26, 524 26" fill="none" stroke="#388bfd" stroke-width="1.4" opacity="0.65"/>
    <line x1="542" y1="66" x2="506" y2="66" stroke="#2ea043" stroke-width="1.6" opacity="0.7"/>
    <path d="M 524 26 C 488 26, 488 66, 452 66" fill="none" stroke="#388bfd" stroke-width="1.4" opacity="0.65"/>
    <path d="M 524 26 C 506 26, 506 106, 488 106" fill="none" stroke="#388bfd" stroke-width="1.4" opacity="0.65"/>
    <line x1="506" y1="66" x2="470" y2="66" stroke="#2ea043" stroke-width="1.6" opacity="0.7"/>
    <path d="M 488 106 C 470 106, 470 66, 452 66" fill="none" stroke="#388bfd" stroke-width="1.4" opacity="0.65"/>
    <line x1="470" y1="66" x2="452" y2="66" stroke="#2ea043" stroke-width="1.6" opacity="0.7"/>
    <line x1="452" y1="66" x2="434" y2="66" stroke="#2ea043" stroke-width="1.6" opacity="0.7"/>
    <line x1="434" y1="66" x2="416" y2="66" stroke="#2ea043" stroke-width="1.6" opacity="0.7"/>
    <line x1="416" y1="66" x2="398" y2="66" stroke="#2ea043" stroke-width="1.6" opacity="0.7"/>
    <line x1="398" y1="66" x2="380" y2="66" stroke="#2ea043" stroke-width="1.6" opacity="0.7"/>
    <line x1="380" y1="66" x2="362" y2="66" stroke="#2ea043" stroke-width="1.6" opacity="0.7"/>
    <line x1="362" y1="66" x2="326" y2="66" stroke="#2ea043" stroke-width="1.6" opacity="0.7"/>
    <path d="M 362 66 C 353 66, 353 26, 344 26" fill="none" stroke="#388bfd" stroke-width="1.4" opacity="0.65"/>
    <path d="M 344 26 C 335 26, 335 66, 326 66" fill="none" stroke="#388bfd" stroke-width="1.4" opacity="0.65"/>
    <line x1="326" y1="66" x2="308" y2="66" stroke="#2ea043" stroke-width="1.6" opacity="0.7"/>
    <line x1="308" y1="66" x2="290" y2="66" stroke="#2ea043" stroke-width="1.6" opacity="0.7"/>
    <line x1="290" y1="66" x2="272" y2="66" stroke="#2ea043" stroke-width="1.6" opacity="0.7"/>
    <path d="M 290 66 C 272 66, 272 106, 254 106" fill="none" stroke="#388bfd" stroke-width="1.4" opacity="0.65"/>
    <line x1="272" y1="66" x2="236" y2="66" stroke="#2ea043" stroke-width="1.6" opacity="0.7"/>
    <path d="M 254 106 C 245 106, 245 66, 236 66" fill="none" stroke="#388bfd" stroke-width="1.4" opacity="0.65"/>
    <line x1="236" y1="66" x2="218" y2="66" stroke="#2ea043" stroke-width="1.6" opacity="0.7"/>
    <line x1="218" y1="66" x2="200" y2="66" stroke="#2ea043" stroke-width="1.6" opacity="0.7"/>
    <line x1="200" y1="66" x2="164" y2="66" stroke="#2ea043" stroke-width="1.6" opacity="0.7"/>
    <path d="M 200 66 C 191 66, 191 26, 182 26" fill="none" stroke="#388bfd" stroke-width="1.4" opacity="0.65"/>
    <path d="M 182 26 C 173 26, 173 66, 164 66" fill="none" stroke="#388bfd" stroke-width="1.4" opacity="0.65"/>
    <line x1="164" y1="66" x2="128" y2="66" stroke="#2ea043" stroke-width="1.6" opacity="0.7"/>
    <path d="M 146 106 C 137 106, 137 66, 128 66" fill="none" stroke="#388bfd" stroke-width="1.4" opacity="0.65"/>
    <line x1="128" y1="66" x2="110" y2="66" stroke="#2ea043" stroke-width="1.6" opacity="0.7"/>
    <line x1="110" y1="66" x2="92" y2="66" stroke="#2ea043" stroke-width="1.6" opacity="0.7"/>
    <line x1="92" y1="66" x2="56" y2="66" stroke="#2ea043" stroke-width="1.6" opacity="0.7"/>
    <path d="M 92 66 C 83 66, 83 26, 74 26" fill="none" stroke="#388bfd" stroke-width="1.4" opacity="0.65"/>
    <path d="M 74 26 C 65 26, 65 66, 56 66" fill="none" stroke="#388bfd" stroke-width="1.4" opacity="0.65"/>
    <line x1="56" y1="66" x2="38" y2="66" stroke="#2ea043" stroke-width="1.6" opacity="0.7"/>
    <line x1="38" y1="66" x2="20" y2="66" stroke="#2ea043" stroke-width="1.6" opacity="0.7"/>
  </g>
  <g id="nodes">
    <circle cx="794" cy="66" r="4" fill="#e3b341" opacity="0.95"/>
    <rect x="772" y="62" width="8" height="8" rx="1.5" transform="rotate(45 776 66)" fill="#6e7681" stroke="#c9d1d9" stroke-width="0.7" opacity="0.9"/>
    <circle cx="758" cy="86" r="4" fill="#e3b341" opacity="0.95"/>
    <circle cx="740" cy="66" r="4" fill="#e3b341" opacity="0.95"/>
    <circle cx="722" cy="46" r="3" fill="#3fb950" opacity="0.95"/>
    <circle cx="704" cy="66" r="3" fill="#3fb950" opacity="0.95"/>
    <circle cx="686" cy="106" r="3" fill="#3fb950" opacity="0.95"/>
    <circle cx="668" cy="66" r="3" fill="#3fb950" opacity="0.95"/>
    <circle cx="650" cy="26" r="3" fill="#3fb950" opacity="0.95"/>
    <circle cx="632" cy="66" r="3" fill="#3fb950" opacity="0.95"/>
    <circle cx="614" cy="106" r="3" fill="#3fb950" opacity="0.95"/>
    <rect x="592" y="22" width="8" height="8" rx="1.5" transform="rotate(45 596 26)" fill="#6e7681" stroke="#c9d1d9" stroke-width="0.7" opacity="0.9"/>
    <circle cx="578" cy="66" r="3" fill="#3fb950" opacity="0.95"/>
    <circle cx="560" cy="106" r="3" fill="#3fb950" opacity="0.95"/>
    <circle cx="542" cy="66" r="3" fill="#3fb950" opacity="0.95"/>
    <circle cx="524" cy="26" r="4" fill="#a371f7" opacity="0.95"/>
    <circle cx="506" cy="66" r="3" fill="#3fb950" opacity="0.95"/>
    <circle cx="488" cy="106" r="3" fill="#3fb950" opacity="0.95"/>
    <circle cx="470" cy="66" r="3" fill="#3fb950" opacity="0.95"/>
    <circle cx="452" cy="66" r="4" fill="#f0883e" opacity="0.95"/>
    <rect x="430" y="62" width="8" height="8" rx="1.5" transform="rotate(45 434 66)" fill="#6e7681" stroke="#c9d1d9" stroke-width="0.7" opacity="0.9"/>
    <circle cx="416" cy="66" r="4" fill="#e3b341" opacity="0.95"/>
    <circle cx="398" cy="66" r="3" fill="#3fb950" opacity="0.95"/>
    <circle cx="380" cy="66" r="3" fill="#3fb950" opacity="0.95"/>
    <circle cx="362" cy="66" r="4" fill="#a371f7" opacity="0.95"/>
    <circle cx="344" cy="26" r="3" fill="#3fb950" opacity="0.95"/>
    <circle cx="326" cy="66" r="4" fill="#f0883e" opacity="0.95"/>
    <rect x="304" y="62" width="8" height="8" rx="1.5" transform="rotate(45 308 66)" fill="#6e7681" stroke="#c9d1d9" stroke-width="0.7" opacity="0.9"/>
    <circle cx="290" cy="66" r="4" fill="#a371f7" opacity="0.95"/>
    <rect x="268" y="62" width="8" height="8" rx="1.5" transform="rotate(45 272 66)" fill="#6e7681" stroke="#c9d1d9" stroke-width="0.7" opacity="0.9"/>
    <circle cx="254" cy="106" r="3" fill="#3fb950" opacity="0.95"/>
    <circle cx="236" cy="66" r="4" fill="#f0883e" opacity="0.95"/>
    <rect x="214" y="62" width="8" height="8" rx="1.5" transform="rotate(45 218 66)" fill="#6e7681" stroke="#c9d1d9" stroke-width="0.7" opacity="0.9"/>
    <circle cx="200" cy="66" r="4" fill="#a371f7" opacity="0.95"/>
    <circle cx="182" cy="26" r="3" fill="#3fb950" opacity="0.95"/>
    <circle cx="164" cy="66" r="4" fill="#f0883e" opacity="0.95"/>
    <circle cx="146" cy="106" r="3" fill="#3fb950" opacity="0.95"/>
    <circle cx="128" cy="66" r="4" fill="#f0883e" opacity="0.95"/>
    <rect x="106" y="62" width="8" height="8" rx="1.5" transform="rotate(45 110 66)" fill="#6e7681" stroke="#c9d1d9" stroke-width="0.7" opacity="0.9"/>
    <circle cx="92" cy="66" r="4" fill="#a371f7" opacity="0.95"/>
    <circle cx="74" cy="26" r="3" fill="#3fb950" opacity="0.95"/>
    <circle cx="56" cy="66" r="4" fill="#f0883e" opacity="0.95"/>
    <rect x="34" y="62" width="8" height="8" rx="1.5" transform="rotate(45 38 66)" fill="#6e7681" stroke="#c9d1d9" stroke-width="0.7" opacity="0.9"/>
    <circle cx="20" cy="66" r="3" fill="#3fb950" opacity="0.95"/>
  </g>
  <text x="806" y="125" text-anchor="end" font-family="sans-serif" font-size="9" fill="#6e7681">44 nodes &#183; 4 tags</text>
</svg>
